<?xml version="1.0" encoding="utf-8"?>
<!-- Generator: Adobe Illustrator 22.0.1, SVG Export Plug-In . SVG Version: 6.00 Build 0)  -->
<svg version="1.1" id="圖層_1" xmlns="http://www.w3.org/2000/svg" xmlns:xlink="http://www.w3.org/1999/xlink" x="0px" y="0px"
	 viewBox="0 0 911.6 142.7" style="enable-background:new 0 0 911.6 142.7;" xml:space="preserve">
<style type="text/css">
	.st0{fill:#8B1C36;}
	.st1{fill:#231815;}
	.st2{fill:none;stroke:#FFFFFF;stroke-width:0.215;}
	.st3{fill:#A91B4B;}
	.st4{fill:#8B1C36;stroke:#FFFFFF;stroke-width:0.25;}
	.st5{fill:none;stroke:#FFFFFF;stroke-width:0.25;}
</style>
<g>
	<path class="st0" d="M76,124.1c-3.8-8.3-4.4-20.2-0.6-33.4c1.2-4,2.4-7.7,4.2-11.3V40.1H59v30.5H35.4V40.3H14.8v83.9h20.6V90.6H59
		v33.4H76z"/>
	<path class="st1" d="M369.3,105.1v20.2c3.2,0.4,6.5,0.6,10.3,0.6c11.9,0,24.1-3.2,30.7-13.9c4.9-8.1,5.1-18.2,0.4-26.7
		c-2-3.6-5.5-6.5-10.9-9.3c-8.5-4-20.8-2.4-29.1-10.1c-0.6-0.4-1-1-1.4-1.4v24.3c2.2,0.6,4.4,1,6.3,1.4c4.9,0.8,15,3,15,10.5
		c0,5.7-6.3,8.5-10.9,8.5C375.6,109.2,372.1,107.6,369.3,105.1z"/>
	<path class="st1" d="M369.3,40.5v18.2c1.4-2.2,4.4-4,7.7-4.4c9.7-0.7,18.2,6.7,18.2,6.7h37.2v63.3h24.5V61.1h24.5V40.3
		c-34.2,0-68.7,0-102.7,0C375,40.3,371.8,40.3,369.3,40.5z"/>
	<path class="st1" d="M369.3,58.7V40.5c-3.8,0.4-6.7,1-9.1,1.8c-5.1,2.4-9.3,6.3-11.7,11.5V40.3h-23.9v51.3
		c0,8.5-4.6,14.6-13.7,14.6c-8.5,0-13.1-6.5-13.1-14.6V40.3h-24.3V57c-1.8-6.3-6.1-12.3-12.7-14.6c-3.8-1-9.7-2-17-2h-4.8v17.2
		c4.6,0,11.1,1.8,11.1,8.3c0,6.1-5.7,8.1-11.1,8.3v18.4c3.4,2,5.9,5.9,9.3,12.5c4.2,8.7,5.5,19.4,5.5,19.4h23.5
		c-2.8-10.1-6.7-21.4-12.3-29.7c-1.2-1.8-3-3.8-3.6-4.2c-1.2-1-3.6-2.6-6.3-3.2c3.4-0.8,6.7-2.2,8.7-3.2c4.7-3,8.1-7.7,9.5-13.1
		v19.4c0,8.1,2,17.4,7.3,23.9c8.5,10.1,18.8,11.3,31.9,11.3c10.7,0,19.2-1.6,26.5-9.5c2.6-2.6,4.7-5.7,6.1-9.3
		c1.4,4.2,4,7.5,6.7,10.7c3.4,4,9.3,6.5,17.2,7.5v-20.2c-2-2.2-3.4-5.1-3.6-8.3l-17.6-0.2c0.2-2,0.4-4,0.4-5.9v-17
		c3.4,7.9,12.5,12.7,20.8,15.2V64.5C368.3,62.5,368.3,60.5,369.3,58.7z"/>
	<path class="st1" d="M239.1,57.6V40.3h-35.6h-76.6v0.2c10.5,0.6,17.8,8.7,20,20.6h9.9v63.3h24.3V61.1h22.6v63.3H228V90.2
		c3.2,0,7.7,0.4,10.1,1.6c0.4,0.2,0.8,0.6,1,0.8V74.2c-0.4,0-0.8,0-1.2,0H228V57.4h10.5C238.7,57.4,238.9,57.6,239.1,57.6z"/>
	<polygon class="st2" points="97,12.4 97,12.4 95.6,17 95.2,21.3 95.6,25.3 97,29.1 99.1,32.4 102.1,35.2 105.9,37.4 110.6,39 
		110.6,39 105.9,37.4 102.1,35.2 99.1,32.4 97,29.1 95.6,25.3 95.2,21.3 95.6,17 	"/>
	<polygon class="st2" points="96.4,12.4 96.4,12.4 97.7,12.6 99.1,12.6 100.5,12.4 101.7,12 102.9,11.5 103.9,10.5 104.7,9.3 
		105.3,7.9 105.3,7.9 104.7,9.3 103.9,10.5 102.9,11.5 101.7,12 100.5,12.4 99.1,12.6 97.7,12.6 	"/>
	<polygon class="st2" points="111.8,36.8 111.8,36.8 108.2,34.4 105.5,31.8 103.5,29.3 101.9,26.5 100.9,23.5 100.3,20.2 99.9,16.6 
		99.9,12.6 99.9,12.6 99.9,16.6 100.3,20.2 100.9,23.5 101.9,26.5 103.5,29.3 105.5,31.8 108.2,34.4 	"/>
	<polygon class="st2" points="115.6,35 115.6,35 115.6,31.2 115.4,27.7 114.8,24.3 113.6,21.1 112,18.2 109.8,15.4 107.2,13 
		103.9,10.7 103.9,10.7 107.2,13 109.8,15.4 112,18.2 113.6,21.1 114.8,24.3 115.4,27.7 115.6,31.2 	"/>
	<polygon class="st2" points="117.9,35.2 117.9,35.2 119.7,30.8 120.3,26.5 119.7,22.1 118.1,18.2 115.6,14.8 112.6,12 108.8,10.1 
		104.9,9.1 104.9,9.1 108.8,10.1 112.6,12 115.6,14.8 118.1,18.2 119.7,22.1 120.3,26.5 119.7,30.8 	"/>
	<polygon class="st2" points="110.6,39.6 110.6,39.6 111,38.4 111.6,37.2 112.4,36.4 113.6,35.6 114.8,35.2 116,35 117.3,35 
		118.7,35.4 118.7,35.4 117.3,35 116,35 114.8,35.2 113.6,35.6 112.4,36.4 111.6,37.2 111,38.4 	"/>
	<path class="st2" d="M102.1,11.8L114,35.4L102.1,11.8z"/>
	<polygon class="st2" points="101.7,38.8 101.7,38.8 103.1,36.2 105.1,33.8 107.4,31.6 110.4,30.1 113.8,28.7 116.9,28.1 
		120.3,27.9 123.3,28.5 123.3,28.5 120.3,27.9 116.9,28.1 113.8,28.7 110.4,30.1 107.4,31.6 105.1,33.8 103.1,36.2 	"/>
	<polygon class="st2" points="114.2,9.1 114.2,9.1 112.4,11.8 110.2,14.2 107.6,16.2 104.9,18 101.9,19.2 98.7,20 95.4,20.2 
		92.2,19.8 92.2,19.8 95.4,20.2 98.7,20 101.9,19.2 104.9,18 107.6,16.2 110.2,14.2 112.4,11.8 	"/>
	<path class="st2" d="M93.6,31l28.7-14.2L93.6,31z"/>
	<polygon class="st2" points="107.6,39.8 107.6,39.8 110.8,39.4 114,38.6 116.7,37 119.1,35 121.1,32.6 122.7,30.1 123.5,26.9 
		123.9,23.7 123.9,23.7 123.5,20.6 122.7,17.6 121.1,14.8 119.1,12.4 116.7,10.5 114,8.9 110.8,8.1 107.6,7.7 107.6,7.7 104.5,8.1 
		101.5,8.9 98.7,10.5 96.6,12.4 94.6,14.8 93,17.6 92.2,20.6 91.8,23.7 91.8,23.7 92.2,26.9 93,30.1 94.6,32.6 96.6,35 98.7,37 
		101.5,38.6 104.5,39.4 	"/>
	<path class="st0" d="M124.1,44.3c-5.1,0-10.5,1.8-15.6,4.9c-2.3,1.5-4.6,3.2-6.8,5.1h3.6c0.8-0.6,1.6-1.2,2.5-1.7
		c0.2-0.2,0.5-0.3,0.7-0.4c4.4-2.5,8.9-4,13.2-4c15,0,21.7,17.8,14.8,39.9c-2.8,9.1-7.6,17.3-13.2,24v6.8
		c7.4-7.9,13.8-18.3,17.4-29.8C148.4,64.3,140.9,44.3,124.1,44.3z"/>
	<path class="st0" d="M96.6,127.8c-15.2,0-21.9-17.8-15-39.7c2.6-8.3,6.9-16.2,12-22.7v-3C87.4,69.9,82.2,79.1,79.1,89
		c-7.7,24.5-0.2,44.5,16.8,44.5c4,0,8.3-1,12.5-3.2c2.5-1.2,5-2.9,7.5-4.8h-9.7C103,127.1,99.6,127.8,96.6,127.8z"/>
	<rect x="95.4" y="56.5" class="st0" width="25.7" height="67.1"/>
	<g>
		<polygon class="st1" points="823.5,40.6 804.6,84.7 814.2,84.7 814.2,127.1 826,127.1 826,65.4 836.1,40.6 		"/>
		<g>
			<g>
				<path class="st1" d="M686.5,62v23.9h2.5l3.4,4.6h13l-13-19.3l10.9-7.1h0.4V51.9c0-5-3.4-8.4-11.8-8.4h-5.5v10.9h5.9v4.2
					L686.5,62z"/>
				<rect x="681.5" y="43.5" class="st1" width="5" height="10.9"/>
				<polygon class="st1" points="686.5,85.9 686.5,62 686.1,62.4 681.5,57 681.5,75.4 681.5,85.9 				"/>
				<polygon class="st1" points="681.5,54.4 681.5,43.5 672.2,43.5 672.2,62.8 681.5,75.4 681.5,85.9 672.2,85.9 672.2,75.4 
					681.5,75.4 681.5,57 680.2,54.4 				"/>
				<polygon class="st1" points="672.2,62.8 672.2,43.5 658.8,43.5 658.8,54.4 664.2,54.4 660,60.3 658.8,59.9 658.8,85.9 
					672.2,85.9 672.2,75.4 662.6,75 671.8,61.6 				"/>
				<polygon class="st1" points="658.8,40.2 658.8,42.3 660,40.2 				"/>
				<polygon class="st1" points="658.8,42.3 658.8,40.2 651.2,40.2 651.2,63.7 655,67 652.9,70.4 651.2,69.6 651.2,90.6 652.5,90.6 
					655,85.9 658.8,85.9 658.8,59.9 652.5,54.4 658.8,54.4 658.8,43.5 658.8,43.1 				"/>
				<polygon class="st1" points="651.2,63.7 651.2,40.2 649.1,40.2 641.1,53.2 641.1,71.2 647.9,77.5 641.1,86.4 641.1,90.6 
					651.2,90.6 651.2,69.6 646.6,64.9 648.7,60.7 				"/>
				<path class="st1" d="M641.1,71.2V53.2l-3.4,6.3l1.7-6.7c1.7-6.7-3.8-12.6-8-12.6h-4.6v12.2c2.1,0,3.4,0.8,2.9,2.5l-2.9,10.5
					v17.2c1.7,0.4,2.9,1.3,2.9,3.4v20.6h-2.9v10.9h13.4V90.6h0.8v-4.2l-0.8,1.7v-4.2c0.4-5-2.9-8.8-5.9-11.3l0.4-1.7h6.3V71.2z"/>
				<path class="st1" d="M626.9,52.3V40.2h-15.1v86.5h10.9v-9.2h4.2v-10.9h-4.2V82.6c0.8,0,2.9,0,4.2,0V65.4l-1.3,6.3h-2.9V52.3
					C623.1,52.3,625.2,51.9,626.9,52.3z"/>
			</g>
		</g>
		<polygon class="st1" points="642,93.1 704.2,93.1 704.2,104 690.3,104 706.7,126.7 693.2,126.7 678.1,105.3 678.1,126.7 
			666.8,126.7 666.8,104.4 651.2,126.7 637.8,126.7 653.7,104 642,104 		"/>
		<g>
			<g>
				<g>
					<path class="st1" d="M751.2,106.9v13.9l3.8,3.4c1.7,2.1,5,2.9,8,2.5h8h11.8l4.2-14.3l2.9,14.3h11.3l-8-35.3l8.8-29h-11.3
						l-2.1,7.6l-2.9-13.4H802V46h-2.5v-5.5h-10.9V46h-5l-1.7-5.9h-10.9l1.3,5.9h-21v10.5h23.5l7.1,34.9l-10.1,34l-12.6-10.9l5.5-5
						c2.5-2.1,2.9-4.6,2.9-7.6v-9.2h4.2V82.2h-4.2v-6.7l-10.9,0.4v6.3h-5.5v10.5h5.5v9.2L751.2,106.9z"/>
					<path class="st1" d="M751.2,56.5V46h-35.3l-2.1,80.7h5c3.8,0,6.3-2.9,6.7-7.1l2.1-63H751.2z"/>
					<path class="st1" d="M751.2,92.7V82.2h-5.5v-6.3l-10.9-0.4v6.7H731v10.5h3.8v9.2c0,2.9,0.4,5.5,2.9,7.6l5.9,5l-14.7,12.2h11.3
						c2.9,0.4,5.5-0.4,7.1-2.5l3.8-3.8v0.4v-13.9l0,0l-5.5-5v-9.2H751.2z"/>
				</g>
			</g>
			<rect x="729.8" y="62" class="st1" width="42.9" height="10.5"/>
		</g>
		<g>
			<g>
				<rect x="574.8" y="109.5" class="st1" width="10.9" height="10.9"/>
				<path class="st1" d="M574.8,80.9v18.9h16v27.3h10.9V46.9c-0.4-3.4-2.5-5.5-6.3-6.3h-20.6v10.5h16v15.1h-5.5l2.9-10.1h-10.1
					l-2.5,10.1h-0.8v10.5h16v12.2h-8.8v-8H574.8z"/>
				<path class="st1" d="M574.8,51.1V40.6h-26.9v86.5h10.5V99.8h5.5v14.3c0,3.8,2.1,5.5,6.3,6.3h4.6v-10.9h-0.4v-9.7h0.4V80.9h-7.1
					v8h-9.2V76.7h16.4V66.2h-1.7l-2.5-10.1h-10.1l2.5,10.1h-4.6V51.1H574.8z"/>
			</g>
		</g>
		<polygon class="st1" points="532.3,96 532.3,126.7 521.4,126.7 521.4,96 510.1,96 510.1,83.8 510.5,83.8 510.5,83.8 521.4,68.7 
			510.1,68.3 510.1,62.4 526.5,41.4 542,41.4 527.3,60.3 543.7,60.3 526,83.8 542,83.8 542,96 		"/>
		<rect x="836.5" y="61.2" class="st1" width="59.7" height="10.9"/>
		<rect x="836.5" y="77.1" class="st1" width="59.7" height="10.5"/>
		<g>
			<g>
				<path class="st1" d="M866.3,116.2v10.9h24.4c4.2-0.4,6.3-3.4,6.7-6.7V92.7h-31.1v10.5h20.2v13H866.3z"/>
				<polygon class="st1" points="866.3,103.2 866.3,92.7 835.2,92.7 835.2,127.1 866.3,127.1 866.3,116.2 846.1,116.2 846.1,103.2 
									"/>
			</g>
		</g>
		<polygon class="st1" points="874.3,45.6 897.4,45.6 897.4,56.1 835.2,56.1 835.2,45.6 857.5,45.6 857.5,40.2 874.3,40.2 		"/>
		<rect x="510.1" y="99.4" class="st1" width="7.6" height="22.7"/>
		<rect x="536.1" y="99.4" class="st1" width="7.1" height="22.7"/>
	</g>
	<g>
		<path class="st3" d="M107.5,39.3L107.5,39.3c0,0,1.9,0,3.2-0.3c1.3-0.3,3.1-0.9,3.1-0.9s1.4-0.5,2.7-1.5c1-0.7,2.3-1.9,2.3-1.9
			s1.5-1.6,1.9-2.4c0.5-0.7,1.4-2.6,1.4-2.6s0.8-2.1,0.9-3c0.2-1.1,0.3-2.5,0.3-2.5s0-0.1,0-0.8c0-0.8-0.3-2.9-0.3-2.9
			s-0.4-1.9-0.9-2.9c-0.5-1.1-1.1-2.2-1.5-2.7c-0.6-0.9-1.1-1.5-1.9-2.3c-0.8-0.9-1.9-1.6-2.3-1.9c-0.7-0.6-1.9-1.1-2.7-1.5
			c-0.9-0.4-2.5-0.8-3.1-0.9c-0.8-0.2-2.1-0.3-2.6-0.3c-0.6,0-1.4,0-1.7,0.1c-0.3,0-0.7,0-1.9,0.3c-1.2,0.2-1.9,0.5-2.9,0.9
			c-1,0.4-2.7,1.5-2.7,1.5s-1.5,1.1-2.2,1.8c-0.6,0.6-1.7,1.9-2,2.3c-0.8,1-1.2,2.2-1.5,2.8c-0.3,0.6-0.7,2-0.9,2.9
			c-0.1,0.6-0.3,1.7-0.3,2.4c0,0.7,0,0.8,0,0.8s0,1.2,0.3,3.1c0.4,2,1,3.1,1,3.1s0.5,1.1,1.4,2.6c0.9,1.5,2.1,2.5,2.1,2.5
			s1.1,1.1,2.2,1.8c1.1,0.8,2.7,1.5,2.7,1.5s1.6,0.6,2.9,0.9C105.7,39.3,107.5,39.3,107.5,39.3z"/>
		<path class="st4" d="M123.4,23.6c0,8.7-7.1,15.8-15.8,15.8c-8.7,0-15.8-7.1-15.8-15.8c0-8.7,7.1-15.8,15.8-15.8
			C116.3,7.8,123.4,14.9,123.4,23.6z"/>
		<path class="st5" d="M108.5,38.3c0,0-3.5-1.7-5.2-2.8c-1.7-1.1-2.7-1.6-4.1-3.4c-1.7-2-2.1-3-2.1-3S96,27.4,95.6,25
			c-0.5-2.6-0.4-6.3,0.2-8.8c0.6-2.5,1-3.2,1-3.2"/>
		<path class="st5" d="M117.9,34.6c0,0,1.1-3.9,1.4-6c0.3-2.1,0.6-3.2,0.2-5.6c-0.4-2.6-0.9-3.6-0.9-3.6s-0.7-2.1-2.2-3.9
			c-1.6-2.1-4.6-4.6-6.9-5.8c-2.4-1.2-3.2-1.2-3.2-1.2"/>
		<path class="st2" d="M102,34.8"/>
		<path class="st2" d="M100.8,23.3"/>
		<path class="st2" d="M101.8,26.3"/>
		<path class="st5" d="M99.8,13.3c0,0-0.1,2.1,0.4,6.2c0.5,4.1,1,5.4,1.7,7.1c0.7,1.7,2.3,4.5,3.9,5.9c1.7,1.5,4.8,3.2,4.8,3.2"/>
		<path class="st5" d="M104.7,10.6c0,0,1.6,1.3,4.5,4.4c2.9,3.1,3.5,4.4,4.4,6.1c0.9,1.7,1.9,4.8,1.9,7.1c0,2.3-0.8,6-0.8,6"/>
		<path class="st5" d="M102.4,12.5l10.1,22.2L102.4,12.5z"/>
		<path class="st5" d="M122.6,28.2c0,0-1.6-0.5-2.9-0.5c-1.1,0-3.8,0.3-4.6,0.4c-0.8,0.1-2.3,0.4-4.3,1.3c-1.9,0.9-3.6,1.9-4.7,2.9
			c-1.5,1.4-1.8,1.6-3,3.3c-1.2,1.6-1.5,2.7-1.5,2.7"/>
		<path class="st5" d="M92.3,19.6c0,0,1.8,0.5,3.1,0.5c1.1,0,3.9-0.4,4.7-0.5c0.8-0.1,2.4-0.5,4.3-1.5c1.9-1,3.7-2.1,4.7-3.1
			c1.5-1.4,1.8-1.7,3-3.4c1.1-1.6,1.4-2.7,1.4-2.7"/>
		<path class="st5" d="M93.6,30.8l28.3-14.1L93.6,30.8z"/>
		<path class="st5" d="M108,39.3c0,0,0.8-1.8,2-2.9c1.2-1.1,1.8-1.6,3.9-2.1c2.6-0.6,4.7,0.6,4.7,0.6"/>
		<path class="st5" d="M106.4,7.9c0,0-0.7,1.8-1.9,3c-1.2,1.1-1.7,1.7-3.8,2.3c-2.6,0.7-4.7-0.3-4.7-0.3"/>
	</g>
</g>
</svg>
