<svg xmlns="http://www.w3.org/2000/svg" width="32" height="21" viewBox="0 0 32 21">
    <g fill="none" fill-rule="evenodd">
        <rect width="32" height="21" fill="#294D78" rx="3"/>
        <g fill="#FFF" fill-rule="nonzero">
            <path d="M2.335 2.284L3.26 2.284 2.798 1.106zM7.257 6.238L7.257 6.785 8.813 6.785 8.813 7.374 7.257 7.374 7.257 8.005 8.982 8.005 9.781 7.122 9.024 6.238zM19.414 1.106L18.909 2.284 19.877 2.284zM11.758 8.341L11.758 5.944 10.664 7.122zM13.82 6.617c-.043-.253-.211-.379-.464-.379h-.883v.757h.926c.252 0 .42-.126.42-.378zM16.764 6.911c.084-.042.126-.168.126-.294.042-.168-.042-.253-.126-.295-.084-.042-.21-.042-.336-.042h-.842v.673h.842c.126 0 .252 0 .336-.042z" transform="translate(3 6)"/>
            <path d="M22.822.012v.505l-.253-.505h-1.977v.505L20.34.012h-2.693c-.462 0-.841.084-1.177.252V.012h-1.893v.252c-.21-.168-.463-.252-.8-.252H7.004l-.463 1.052L6.08.012H3.934v.505L3.722.012H1.872L1.03 1.989.063 4.135l-.018.042H2.235l.016-.042.252-.631h.547l.252.673h2.44v-.505l.21.505h1.22l.21-.505v.505h5.848V3.083h.085c.084 0 .084 0 .084.126v.926h3.029v-.253c.252.127.63.253 1.135.253h1.262l.253-.673h.589l.252.673h2.44v-.631l.379.63h1.976V.013h-1.892zM8.56 3.546h-.673V1.232l-.042.097v-.002l-.98 2.219h-.619l-1.01-2.314v2.314h-1.43l-.294-.631h-1.43l-.295.63h-.74L2.293.602h1.051L4.522 3.42V.6h1.115l.02.042h.001l.53 1.155.382.866.013-.044.842-2.019H8.56v2.945zm2.903-2.314H9.823v.547h1.598v.589H9.823v.589h1.64v.63H9.109V.602h2.356v.631zm3 1.085l.004.002c.016.017.03.034.041.05.08.106.146.263.15.493v.023l.002.072v.589h-.631v-.337c0-.168 0-.42-.127-.589-.04-.04-.08-.066-.123-.084-.064-.041-.183-.042-.381-.042h-.758v1.052h-.715V.6h1.599c.378 0 .63 0 .841.126.206.124.33.33.336.654-.01.448-.297.694-.504.777 0 0 .14.028.266.159zm1.417 1.229h-.716V.6h.716v2.945zm8.203 0h-.926l-1.346-2.23v1.851l-.004-.004v.385h-.71v-.002h-.716l-.253-.631h-1.472l-.252.673h-.8c-.336 0-.757-.084-1.01-.337-.252-.252-.378-.589-.378-1.135 0-.421.084-.842.379-1.178.21-.253.589-.337 1.051-.337h.674v.631h-.674c-.252 0-.378.042-.547.168-.126.127-.21.379-.21.673 0 .337.042.547.21.716.127.126.295.168.505.168h.295l.967-2.314h1.052l1.178 2.819V.644h1.052l1.22 2.06V.645h.715v2.902z" transform="translate(3 6)"/>
            <path d="M13.864 1.828c.013-.014.024-.028.033-.046.038-.06.082-.169.058-.317 0-.013-.003-.026-.006-.038 0-.004 0-.007-.002-.01-.02-.072-.074-.116-.128-.143-.084-.042-.21-.042-.336-.042h-.842v.673h.842c.126 0 .252 0 .336-.042.013-.006.024-.015.035-.025l.01-.01zM26.566 7.753c0-.295-.084-.59-.21-.8V5.06h-.002v-.126h-2.026c-.262 0-.58.252-.58.252v-.252h-1.936c-.294 0-.673.084-.841.252v-.252h-3.45v.252c-.252-.21-.715-.252-.925-.252h-2.272v.252c-.21-.21-.715-.252-.968-.252h-2.523l-.59.631-.546-.631H5.91v4.249h3.702l.608-.608.527.608H13.104v-.968h.21c.295 0 .674 0 .968-.126V9.225h1.893V8.131h.084c.126 0 .126 0 .126.126v.968h5.721c.38 0 .758-.084.968-.253v.253h1.81c.377 0 .756-.042 1.009-.21.387-.233.631-.644.668-1.135l.005-.043-.003-.003.003-.081zM13.315 7.5h-.842v1.094H11.09l-.804-.926-.003.004-.04-.046-.925.968H6.626V5.649H9.36l.747.819.157.17.021-.021.884-.968h2.23c.432 0 .917.107 1.1.547.023.088.035.185.035.295 0 .84-.589 1.01-1.22 1.01zm4.206-.042c.084.126.126.295.126.547v.589h-.715v-.379c0-.168 0-.462-.126-.589-.084-.126-.252-.126-.505-.126h-.757v1.094h-.715V5.607h1.599c.336 0 .63 0 .841.126.21.127.378.337.378.674 0 .462-.294.715-.504.799.21.084.336.168.378.252zm2.903-1.22h-1.64v.547h1.598v.589h-1.599v.589h1.641v.631h-2.356V5.607h2.356v.631zm1.767 2.356h-1.346v-.63h1.346c.126 0 .21 0 .294-.085.043-.042.084-.126.084-.21 0-.085-.041-.169-.084-.21-.042-.043-.126-.085-.252-.085-.673-.042-1.473 0-1.473-.925 0-.421.253-.884 1.01-.884h1.388v.715h-1.304c-.126 0-.21 0-.294.042-.084.042-.084.127-.084.21 0 .127.084.17.168.21.084.043.168.043.252.043h.379c.379 0 .63.084.8.252.125.127.21.337.21.631 0 .631-.379.926-1.094.926zm3.618-.295c-.168.169-.463.295-.884.295H23.58v-.63h1.346c.126 0 .21 0 .295-.085.042-.042.084-.126.084-.21 0-.085-.042-.169-.084-.21-.042-.043-.126-.085-.253-.085-.673-.042-1.472 0-1.472-.925 0-.4.229-.761.793-.869.067-.009.139-.015.217-.015h1.388v.715h-1.304c-.126 0-.21 0-.295.042-.042.042-.084.127-.084.21 0 .127.042.17.168.21.085.043.169.043.253.043h.378c.184 0 .323.023.45.067.117.043.503.215.589.666.008.047.013.096.013.15 0 .253-.084.463-.252.631z" transform="translate(3 6)"/>
        </g>
    </g>
</svg>
