<svg xmlns="http://www.w3.org/2000/svg" xmlns:xlink="http://www.w3.org/1999/xlink" width="32" height="21" viewBox="0 0 32 21">
    <defs>
        <path id="prefix__a" d="M0.012 0.008L31.908 0.008 31.908 20.434 0.012 20.434z"/>
    </defs>
    <g fill="none" fill-rule="evenodd">
        <mask id="prefix__b" fill="#fff">
            <use xlink:href="#prefix__a"/>
        </mask>
        <path fill="#1A1919" d="M29.05.007H2.53c-.092.001-.184.002-.276.005-.2.005-.402.017-.6.052-.2.036-.387.095-.57.188-.18.092-.343.21-.486.353-.142.143-.261.306-.353.486-.093.182-.152.37-.187.57-.036.198-.048.4-.053.6-.003.092-.004.184-.005.276V17.904c.001.092.002.184.005.275.005.2.017.402.053.6.035.201.094.388.187.57.092.18.21.344.353.486.143.143.307.262.486.353.183.093.37.152.57.188.198.036.4.048.6.053.092.002.184.004.276.004H29.377c.092 0 .184-.002.276-.004.2-.005.402-.017.6-.053.201-.036.388-.095.57-.188.18-.09.344-.21.486-.353.142-.142.262-.306.353-.485.093-.183.152-.37.188-.571.036-.198.047-.4.053-.6.002-.091.004-.183.004-.275V2.864v-.327c0-.092-.002-.184-.004-.276-.006-.2-.017-.402-.053-.6-.036-.2-.095-.388-.188-.57-.091-.18-.21-.343-.353-.486-.142-.142-.306-.261-.486-.353-.182-.093-.369-.152-.57-.188-.198-.035-.4-.047-.6-.052-.092-.003-.184-.004-.276-.005h-.327" mask="url(#prefix__b)"/>
        <path fill="#FFFFFE" d="M29.05.688h.322c.088 0 .175.002.263.004.152.004.331.013.498.042.144.026.266.066.382.125.115.059.22.135.312.227.093.093.17.198.229.314.059.116.098.237.124.383.03.164.038.343.042.497l.004.262V17.901c0 .086-.002.173-.004.26-.004.153-.012.332-.042.499-.026.144-.065.265-.125.38-.059.117-.135.222-.227.314-.093.092-.198.169-.314.228-.116.059-.237.098-.38.124-.17.03-.356.039-.496.042-.088.003-.176.004-.266.004l-.322.001H2.857h-.324l-.26-.004c-.143-.004-.33-.013-.498-.043-.145-.026-.266-.065-.383-.125-.115-.058-.22-.135-.313-.228-.091-.091-.168-.196-.227-.312-.059-.116-.098-.238-.124-.383-.03-.166-.039-.345-.043-.497L.681 17.9V2.54c0-.087.002-.174.004-.261.004-.153.013-.331.043-.499.026-.144.065-.265.124-.382.059-.115.136-.22.228-.313.092-.091.197-.168.313-.227C1.509.8 1.63.76 1.775.734c.166-.03.345-.038.498-.042l.261-.004H29.05"/>
        <path fill="#1A1919" d="M8.71 6.877c.274-.341.46-.8.41-1.27-.4.02-.888.265-1.17.607-.254.292-.478.77-.42 1.22.449.039.898-.225 1.18-.557M9.115 7.521c-.652-.038-1.206.37-1.518.37-.311 0-.788-.35-1.303-.34-.672.01-1.294.389-1.635.992-.7 1.208-.185 2.999.496 3.982.331.487.73 1.022 1.255 1.003.497-.02.691-.321 1.294-.321.603 0 .779.321 1.304.312.545-.01.886-.487 1.217-.974.38-.555.534-1.09.544-1.12-.01-.01-1.05-.409-1.06-1.606-.01-1.003.817-1.48.856-1.51-.467-.69-1.197-.768-1.45-.788M13.188 10.021h1.3c.987 0 1.549-.531 1.549-1.452 0-.921-.562-1.448-1.544-1.448h-1.305v2.9zm1.604-3.856c1.417 0 2.404.976 2.404 2.398 0 1.428-1.007 2.41-2.44 2.41h-1.568v2.495h-1.134V6.165h2.738zM20.928 11.474v-.42l-1.31.08c-.653.046-1.023.335-1.023.79 0 .466.385.77.972.77.764 0 1.361-.527 1.361-1.22zm-3.436.48c0-.931.713-1.503 1.979-1.574l1.457-.086v-.41c0-.592-.4-.946-1.067-.946-.633 0-1.028.304-1.124.78h-1.032c.06-.962.88-1.67 2.196-1.67 1.29 0 2.116.683 2.116 1.75v3.67h-1.048v-.876h-.025c-.309.592-.982.967-1.68.967-1.043 0-1.772-.648-1.772-1.605zM23.006 15.426v-.885c.08.02.263.02.354.02.506 0 .78-.213.946-.76 0-.01.096-.323.096-.328l-1.923-5.33h1.184l1.347 4.333h.02l1.346-4.333h1.154l-1.994 5.603c-.456 1.29-.982 1.706-2.085 1.706-.091 0-.365-.01-.445-.026"/>
    </g>
</svg>
