<svg xmlns="http://www.w3.org/2000/svg" width="32" height="21" viewBox="0 0 32 21">
    <g fill="none">
        <path fill="#3C4043" d="M29.119.007H2.536c-.092.001-.184.002-.276.005-.201.005-.403.017-.602.052-.201.037-.389.096-.571.189C.907.344.742.463.6.606.457.75.337.913.246 1.093c-.093.183-.152.37-.188.571-.036.199-.048.4-.053.601C.002 2.357 0 2.45 0 2.541V17.935c.001.092.002.184.005.276.005.2.017.403.053.6.036.202.095.39.188.572.091.18.211.344.354.487.142.143.307.262.487.353.182.094.37.153.571.189.199.035.401.047.602.053l.276.003.328.001h26.582c.092 0 .184-.002.277-.004.2-.006.403-.018.601-.053.202-.036.39-.095.572-.189.18-.09.344-.21.487-.353.142-.143.262-.307.354-.487.093-.183.152-.37.188-.571.036-.198.047-.4.053-.601l.004-.276V2.869v-.328c0-.092-.002-.184-.004-.276-.006-.2-.017-.402-.053-.6-.036-.202-.095-.39-.188-.572-.092-.18-.212-.344-.354-.487-.143-.142-.307-.262-.487-.353-.183-.093-.37-.152-.572-.189-.198-.035-.4-.047-.601-.052-.093-.003-.185-.004-.277-.005h-.327"/>
        <path fill="#FFFFFE" d="M29.119.689h.323l.262.004c.153.005.333.013.5.043.144.026.266.066.383.125.115.058.22.135.313.227.092.093.17.198.229.315.059.116.098.237.124.383.03.165.038.344.042.498.003.087.004.174.004.263l.001.322V17.932c0 .087-.002.173-.005.26-.004.154-.012.333-.042.5-.026.144-.065.265-.125.382-.059.116-.136.221-.228.313-.092.093-.198.17-.314.229-.116.059-.238.099-.381.124-.17.03-.357.04-.497.043-.089.002-.177.003-.267.003l-.322.001H2.54c-.089 0-.177-.002-.262-.004-.143-.004-.33-.012-.499-.043-.145-.025-.266-.065-.384-.125-.115-.059-.22-.135-.313-.228-.092-.092-.169-.197-.228-.313-.06-.117-.099-.238-.125-.384-.03-.166-.038-.345-.042-.497-.003-.088-.004-.175-.004-.262V2.546c0-.088.001-.175.004-.262.004-.153.012-.332.043-.5.025-.144.065-.265.124-.382.06-.116.136-.221.228-.313.092-.093.198-.17.314-.228.116-.06.238-.1.383-.125.167-.03.346-.038.5-.043L2.54.69H29.12"/>
        <g>
            <g fill="#3C4043">
                <path d="M.917 4.34v2.917H.006v-7.2h2.416c.583-.011 1.15.213 1.562.626.827.781.878 2.096.102 2.94l-.102.103c-.424.408-.945.614-1.562.614H.917zm0-3.398v2.514h1.528c.34.012.668-.126.9-.373.475-.5.464-1.303-.028-1.786-.232-.23-.544-.355-.872-.355H.917zM6.74 2.17c.674 0 1.206.184 1.597.546.39.361.583.866.583 1.504v3.037h-.872v-.684h-.04c-.379.563-.877.844-1.505.844-.532 0-.985-.16-1.341-.482-.351-.298-.55-.74-.538-1.205 0-.511.192-.913.572-1.218.379-.304.888-.453 1.522-.453.543 0 .985.103 1.336.298v-.212c0-.316-.136-.614-.374-.82-.243-.22-.554-.34-.877-.34-.51 0-.911.218-1.206.655l-.803-.511c.43-.637 1.08-.959 1.947-.959zM5.564 5.747c0 .24.114.465.3.603.204.16.453.246.708.24.385 0 .753-.154 1.024-.43.3-.287.453-.626.453-1.016-.283-.23-.68-.345-1.188-.339-.368 0-.68.092-.929.27-.243.178-.368.402-.368.672zM13.923 2.331L10.878 9.421 9.938 9.421 11.07 6.941 9.072 2.331 10.063 2.331 11.506 5.867 11.523 5.867 12.932 2.331z" transform="translate(3.671 5.796) translate(10.81 .574)"/>
            </g>
            <path fill="#4285F4" d="M8.042 4.283c0-.282-.022-.563-.068-.838H4.132v1.59h2.201c-.09.51-.385.97-.815 1.257v1.034h1.313c.77-.718 1.211-1.78 1.211-3.043z" transform="translate(3.671 5.796)"/>
            <path fill="#34A853" d="M4.132 8.324c1.098 0 2.026-.367 2.7-.998L5.517 6.292c-.368.253-.837.396-1.386.396-1.064 0-1.964-.729-2.287-1.705H.492v1.068c.69 1.395 2.1 2.273 3.64 2.273z" transform="translate(3.671 5.796)"/>
            <path fill="#FBBC04" d="M1.845 4.983c-.17-.51-.17-1.068 0-1.584V2.337H.492C-.09 3.502-.09 4.88.492 6.045l1.353-1.062z" transform="translate(3.671 5.796)"/>
            <path fill="#EA4335" d="M4.132 1.694c.583-.012 1.143.212 1.562.62L6.86 1.13C6.118.431 5.145.046 4.132.057c-1.54 0-2.95.885-3.64 2.28l1.353 1.067c.323-.981 1.223-1.71 2.287-1.71z" transform="translate(3.671 5.796)"/>
        </g>
    </g>
</svg>
