<svg xmlns="http://www.w3.org/2000/svg" width="32" height="21" viewBox="0 0 32 21">
    <g fill="none" fill-rule="evenodd">
        <rect width="32" height="21" fill="#F3F2F2" rx="3"/>
        <g fill-rule="nonzero">
            <path fill="#0F549D" d="M.847 12.112H3.77c1.028 0 2.217-.963 2.217-2.216V0H3.16C1.843 0 .847.835.847 2.28v9.832z" transform="translate(7 5)"/>
            <path fill="#B41F36" d="M6.63 12.112h2.922c1.028 0 2.217-.963 2.217-2.216V0H8.942C7.625 0 6.63.835 6.63 2.28v9.832z" transform="translate(7 5)"/>
            <path fill="#329947" d="M12.491 12.112h2.923c1.028 0 2.217-.963 2.217-2.216V0h-2.827c-1.317 0-2.313.835-2.313 2.28v9.832z" transform="translate(7 5)"/>
            <g fill="#F3F2F2">
                <path d="M.835 2.25H.032c.225.899 1.285 1.606 2.474 1.606 1.092 0 2.57-.61 2.57-1.767V0H3.245v2.088c0 .61-.482 1.092-1.157 1.092-.61 0-1.156-.385-1.253-.932zM16.863 2.667c0 .482-.418.867-.964.867h-4.047V.001h4.047c.482 0 .9.418.9.9 0 .481-.418.899-.9.899.546 0 .964.385.964.867zm-3.47-1.06h1.253c.322 0 .61-.289.61-.61s-.288-.61-.61-.61h-1.253v1.22zM14.68 3.15c.32 0 .61-.29.61-.61 0-.322-.29-.61-.61-.61h-1.286v1.22h1.286zM10.883 2.924v.61H7.8c-.964 0-1.767-.803-1.767-1.766C6.033.804 6.836 0 7.8 0h3.083v.643C10.146.483 9.438.387 9.085.387c-.77 0-1.38.61-1.38 1.38 0 .772.61 1.382 1.38 1.382.354 0 1.06-.064 1.8-.225z" transform="translate(7 5) translate(0 4.157)"/>
            </g>
        </g>
    </g>
</svg>
