<svg xmlns="http://www.w3.org/2000/svg" width="24" height="24" viewBox="0 0 24 24">
    <g fill="none" fill-rule="evenodd">
        <path stroke="#8B1D36" stroke-width="2" d="M12 5c-1.732 0-3.3.702-4.435 1.837-1.136 1.135-1.838 2.704-1.838 4.436v5.352l-.955.043c-.216.01-.409.103-.548.25-.139.144-.224.341-.224.558 0 .224.09.426.237.573.147.146.349.237.573.237h14.38c.224 0 .426-.09.573-.237.146-.147.237-.35.237-.573 0-.21-.08-.4-.216-.542-.147-.154-.355-.25-.591-.268l-.921-.073v-5.32c0-1.732-.701-3.3-1.837-4.436C15.3 5.702 13.732 5 12 5z"/>
        <path fill="#8B1D36" d="M11 3H13V5H11z"/>
        <ellipse cx="12.455" cy="19.361" fill="#8B1D36" rx="2.273" ry="1.885"/>
    </g>
</svg>
