<svg xmlns="http://www.w3.org/2000/svg" width="32" height="21" viewBox="0 0 32 21">
    <g fill="none" fill-rule="evenodd">
        <rect width="32" height="21" fill="#E8E8E8" rx="3"/>
        <g fill-rule="nonzero">
            <g fill="#293688">
                <path d="M5.615 6.304L6.659.137 8.35.137 7.306 6.304zM13.326.296c-.335-.125-.86-.259-1.516-.259-1.671 0-2.848.837-2.858 2.036-.01.886.84 1.38 1.482 1.675.658.302.88.495.876.765-.004.413-.526.602-1.012.602-.677 0-1.036-.093-1.592-.323l-.218-.099-.237 1.381c.395.172 1.125.322 1.884.33 1.777-.001 2.932-.827 2.945-2.108.006-.701-.445-1.235-1.42-1.676-.592-.285-.954-.475-.95-.764 0-.256.307-.53.969-.53.553-.01.953.11 1.266.236l.151.07.23-1.336zM16.209.137c-.405 0-.698.123-.876.525l-2.506 5.642h1.79l.348-.945h2.14l.198.945h1.592L17.502.137H16.21zm-.769 3.988c.14-.355.674-1.724.674-1.724-.01.017.139-.356.224-.588l.115.531.391 1.781H15.44zM2.531 4.364l-.149-.845C2.074 2.533 1.116 1.467.042.933l1.495 5.371h1.79L6.013.137h-1.79L2.53 4.364z" transform="translate(6 7) translate(1.796)"/>
            </g>
            <path fill="#F7981D" d="M0 .137v.1c2.122.51 3.595 1.8 4.178 3.282L3.565.663c-.102-.39-.412-.513-.78-.526H0z" transform="translate(6 7)"/>
        </g>
    </g>
</svg>
