<?xml version="1.0" encoding="utf-8"?>
<!-- Generator: Adobe Illustrator 26.2.1, SVG Export Plug-In . SVG Version: 6.00 Build 0)  -->
<svg version="1.1" id="图层_1" xmlns="http://www.w3.org/2000/svg" xmlns:xlink="http://www.w3.org/1999/xlink" x="0px" y="0px"
	 viewBox="0 0 159.1 43" style="enable-background:new 0 0 159.1 43;" xml:space="preserve">
<style type="text/css">
	.st0{fill-rule:evenodd;clip-rule:evenodd;fill:#221714;}
	.st1{fill-rule:evenodd;clip-rule:evenodd;fill:#861D35;}
	.st2{fill-rule:evenodd;clip-rule:evenodd;fill:#FFFFFF;}
</style>
<g id="HiTRUSE_logo">
	<g id="Group">
		<path id="Combined-Shape_00000052083081941135885070000016737439084187230620_" class="st0" d="M78,11.2c2.5,0,4.5,0.3,5.8,0.7
			c2.2,0.8,3.7,2.8,4.3,5v-5.7h8.3v17.5c0,2.8,1.6,5,4.5,5c3.1,0,4.7-2.1,4.7-5V11.2h8.2v4.6c0.8-1.8,2.2-3.1,4-3.9
			c0.8-0.3,1.8-0.5,3.1-0.6c0.7-0.1,1.5-0.1,2.4-0.1h35.8v7.1h-8.4v21.6h-8.4V18.3h-12.7c0,0-2.9-2.5-6.2-2.3
			c-1.1,0.1-2.2,0.7-2.6,1.5c-0.3,0.6-0.3,1.3,0,2c0.1,0.1,0.3,0.3,0.5,0.5c2.8,2.6,7,2.1,9.9,3.4c1.8,0.9,3,2,3.7,3.2
			c1.6,2.9,1.6,6.3-0.1,9.1c-2.2,3.6-6.4,4.7-10.5,4.7c-1.3,0-2.4-0.1-3.5-0.2h-0.4c-2.5-0.4-4.4-1.2-5.5-2.5
			c-0.9-1.1-1.8-2.2-2.3-3.6c-0.5,1.2-1.2,2.3-2.1,3.2c-2.5,2.7-5.4,3.2-9,3.2c-4.5,0-8-0.4-10.9-3.8c-1.8-2.2-2.5-5.4-2.5-8.2v-6.6
			c-0.5,1.8-1.6,3.4-3.2,4.5c-0.7,0.3-1.8,0.8-3,1.1c0.9,0.2,1.8,0.7,2.2,1.1c0.2,0.1,0.8,0.8,1.2,1.4c1.9,2.8,3.2,6.7,4.2,10.1h-8
			c0,0-0.5-3.6-1.9-6.6c-1.1-2.2-2-3.6-3.2-4.3c-0.1-0.1-0.2-0.2-0.3-0.3c-0.8-0.4-2.4-0.5-3.4-0.5v11.7h-8.3V18.3h-7.7v21.6h-8.3
			V18.3H45c-0.7-4-3.2-6.8-6.8-7v-0.1C38.2,11.2,78,11.2,78,11.2z M113.7,22.6v5.8c0,0.7-0.1,1.3-0.1,2l6,0.1
			c0.1,1.1,0.5,2.1,1.2,2.8c0.9,0.9,2.2,1.4,3.6,1.4c1.6,0,3.7-0.9,3.7-2.9c0-2.6-3.4-3.3-5.1-3.6c-0.7-0.1-1.4-0.3-2.2-0.5l0,0
			c-2.7-0.8-5.7-2.4-7-4.9L113.7,22.6z M76.2,17h-3.6v5.7h3.8c1.8-0.1,3.8-0.7,3.8-2.8c0-2.2-2.2-2.8-3.8-2.8
			C76.3,17.1,76.3,17,76.2,17z"/>
		<g id="Group-3">
			<path id="Combined-Shape_00000060031176604128216220000015918851510310146973_" class="st1" d="M26.8,18.7v1
				c-1.7,2.2-3.2,4.9-4.1,7.7C20.4,35,22.7,41,27.9,41c1,0,2.2-0.2,3.3-0.7h3.3c-0.8,0.6-1.7,1.2-2.5,1.6c-1.5,0.8-3,1.1-4.4,1.1
				c-5.8,0-8.4-6.8-5.7-15.2C23,24.5,24.7,21.3,26.8,18.7z M22,11.2v13.4c-0.6,1.2-1,2.5-1.4,3.8c-1.3,4.5-1.1,8.6,0.2,11.4H15V28.4
				H7v11.5H0V11.2h7v10.3h8V11.2H22z M36.2,16.7v22.9h-8.8V16.7H36.2z M37.2,12.6c5.7,0,8.3,6.8,5.7,15.2c-1.2,3.9-3.4,7.5-5.9,10.2
				v-2.3c1.9-2.3,3.5-5.1,4.5-8.2c2.3-7.5,0.1-13.6-5.1-13.6c-1.5,0-3,0.5-4.5,1.4c-0.1,0-0.2,0.1-0.3,0.1c-0.3,0.2-0.6,0.4-0.8,0.6
				h-1.2c0.8-0.6,1.5-1.2,2.3-1.7C33.6,13.2,35.5,12.6,37.2,12.6z M31.9,0.1c0.2,0,0.6,0,0.9,0.1c0.2,0,0.8,0.2,1.1,0.3
				s0.7,0.3,1,0.5c0.1,0.1,0.5,0.4,0.8,0.7s0.5,0.5,0.7,0.8c0.2,0.2,0.4,0.6,0.5,1c0.2,0.4,0.3,1,0.3,1v0.1c0,0.2,0.1,0.7,0.1,1v0.3
				c0,0,0,0.5-0.1,0.9c-0.1,0.3-0.3,1.1-0.3,1.1s-0.3,0.7-0.5,0.9c-0.2,0.3-0.7,0.8-0.7,0.8s-0.5,0.4-0.8,0.7c-0.5,0.3-1,0.5-1,0.5
				s-0.6,0.2-1.1,0.3s-1.1,0.1-1.1,0.1l0,0c0,0-0.6,0-1.1-0.1s-1-0.3-1-0.3l0,0c-0.1-0.1-0.6-0.3-0.9-0.5c-0.4-0.2-0.8-0.6-0.8-0.6
				s-0.4-0.4-0.7-0.9c-0.3-0.5-0.5-0.9-0.5-0.9s-0.2-0.4-0.3-1.1c-0.1-0.5-0.1-0.9-0.1-1V5.4c0-0.2,0.1-0.6,0.1-0.8
				c0.1-0.3,0.2-0.8,0.3-1c0.1-0.2,0.3-0.6,0.5-1c0.1-0.2,0.5-0.6,0.7-0.8L28,1.7c0.3-0.3,0.7-0.6,0.7-0.6s0.6-0.4,1-0.5
				s0.6-0.2,1-0.3s0.5-0.1,0.7-0.1C31.4,0.1,31.7,0.1,31.9,0.1z"/>
			<path id="Combined-Shape_00000173136337128752339350000012966349714394094992_" class="st2" d="M31.8,0c3.2,0,5.7,2.6,5.7,5.7
				s-2.6,5.7-5.7,5.7l0,0c-3.2,0-5.7-2.6-5.7-5.7S28.6,0,31.8,0z M30.2,10.2L30.2,10.2c-0.2,0.2-0.3,0.5-0.4,0.7
				c0.6,0.2,1.2,0.4,1.9,0.4c0,0,0-0.1,0.1-0.2L31.7,11C31.3,10.8,30.7,10.4,30.2,10.2z M34,9.7c-0.7,0.2-0.9,0.3-1.3,0.7
				c-0.3,0.2-0.5,0.6-0.6,0.8c1.3-0.1,2.4-0.6,3.3-1.4C35.2,9.7,34.6,9.6,34,9.7z M31.1,9.1L31.1,9.1c-0.3,0.3-0.5,0.4-0.7,0.8
				c0.5,0.3,1.3,0.7,1.6,0.9c0.1-0.2,0.3-0.4,0.5-0.6l0.1-0.1C32.2,9.9,31.5,9.5,31.1,9.1z M27.9,7.9L27,8.3
				c0.6,1.1,1.5,1.9,2.6,2.4c0.1-0.2,0.2-0.4,0.4-0.7l0,0c-0.5-0.3-0.8-0.5-1.3-1.1C28.2,8.4,28,8,27.9,7.9z M31.3,8.9
				c0.5,0.4,1.2,0.8,1.5,1c0.1-0.1,0.3-0.2,0.5-0.3l-0.7-1.5C32.1,8.4,31.6,8.7,31.3,8.9z M29.6,7l-1.5,0.7c0.1,0.2,0.3,0.5,0.7,0.9
				c0.5,0.5,0.8,0.7,1.3,1.1h0.1l0,0c0.3-0.4,0.4-0.5,0.7-0.8L31,9C30.5,8.6,29.9,7.7,29.6,7z M36,7.3v0.2c-0.1,0.6-0.4,1.7-0.5,2
				l0,0h0.1c0.6-0.6,1-1.3,1.3-2.1C36.8,7.5,36.4,7.3,36,7.3z M34.4,7.5c-0.5,0.1-1,0.2-1.5,0.5h-0.1l0.7,1.5c0.1,0,0.2-0.1,0.4-0.1
				c0.1,0,0.2,0,0.2,0C34.2,9.1,34.4,8.1,34.4,7.5L34.4,7.5z M34.7,7.4L34.7,7.4c0,0.6-0.2,1.5-0.2,1.9c0.3,0,0.6,0,0.8,0.1
				c0.1-0.4,0.4-1.4,0.4-2V7.3C35.4,7.3,35,7.4,34.7,7.4z M31.6,6l-1.7,0.9V7c0.3,0.6,0.7,1.3,1.2,1.8l0,0c0.3-0.3,0.8-0.6,1.3-0.9
				L31.6,6z M26.5,4.5v0.2c-0.1,0.3-0.1,0.7-0.1,1.1c0,0.8,0.2,1.6,0.5,2.3l0.9-0.4c-0.1-0.2-0.3-0.7-0.4-1.4
				c-0.1-0.5-0.1-1.1-0.1-1.6C26.9,4.6,26.7,4.6,26.5,4.5z M33.7,5l-1.8,0.9l0.8,1.8h0.1c0.5-0.2,1-0.4,1.5-0.5l0,0
				C34.3,6.4,34,5.6,33.7,5z M29,4.5h-0.1c-0.4,0.1-1,0.1-1.4,0.1c0,0.6,0,1.1,0.1,1.6c0.1,0.6,0.3,1,0.4,1.3l1.5-0.7V6.7
				C29.3,6.1,29.1,5.6,29,4.5z M36.7,3.5l-1,0.5c0,0.1,0.1,0.2,0.1,0.2s0.2,0.4,0.3,1.3c0.1,0.6,0.1,1,0,1.5H36c0.4,0,0.9,0.1,1,0.2
				c0.1-0.5,0.2-1,0.2-1.5C37.2,4.9,37.1,4.2,36.7,3.5z M35.4,4.1L34,4.8L34.1,5c0.3,0.6,0.5,1.5,0.6,2.2C35,7.1,35.5,7,35.8,7
				c0.1-0.5,0.1-0.8,0-1.5c-0.1-0.6-0.2-1-0.3-1.1V4.3c0,0,0,0,0-0.1C35.5,4.3,35.5,4.2,35.4,4.1z M30.7,3.9L30.7,3.9
				c-0.5,0.3-1,0.4-1.4,0.5V4.3c0.1,1.3,0.3,1.8,0.5,2.3l1.7-0.9L30.7,3.9z M32.3,2.9L32.3,2.9c-0.2,0.2-0.8,0.6-1.4,0.9l0.8,1.8
				l1.8-0.9C33.4,4.2,33.1,3.8,32.3,2.9z M33.4,1.6L33.4,1.6c-0.4,0.5-0.5,0.7-0.9,1.1l-0.1-0.1c0.9,1,1.2,1.5,1.5,2l1.4-0.7
				C35.2,3.6,35,3.3,34.7,3C34.4,2.5,33.9,2,33.4,1.6z M28,2.2L28,2.2c-0.1,0.2-0.2,0.5-0.3,1c-0.1,0.3-0.1,0.7-0.2,1.2h-0.1
				c0.3,0,1.1-0.1,1.5-0.2v0.1c-0.1-1.1-0.1-1.8-0.1-2.1c-0.1,0-0.1,0-0.2,0l0,0C28.4,2.3,28.1,2.2,28,2.2z M27.6,2.3l-0.1,0.2
				c-0.4,0.5-0.7,1.1-0.9,1.8c0.2,0,0.4,0.1,0.6,0.1c0-0.4,0.1-0.9,0.2-1.2C27.5,2.7,27.6,2.5,27.6,2.3z M29.3,2.2
				c-0.1,0-0.1,0-0.2,0c0,0.3,0,0.9,0.1,1.9C29.6,4,30,3.9,30.6,3.7L29.8,2C29.7,2.1,29.5,2.1,29.3,2.2z M34,0.7L34,0.7
				c-0.1,0.2-0.2,0.4-0.4,0.7c0.5,0.4,1,0.9,1.4,1.3c0.3,0.3,0.5,0.7,0.6,1l1-0.5C36,2.1,35.1,1.2,34,0.7z M30.7,1.3L30.7,1.3
				c-0.2,0.2-0.4,0.4-0.7,0.5l0.7,1.6c0.5-0.3,1-0.6,1.3-0.8l0.1,0.1C31.5,2.1,31.1,1.6,30.7,1.3L30.7,1.3z M31.3,0.5L31.3,0.5
				c-0.1,0.2-0.2,0.4-0.4,0.6c0.2,0.2,0.7,0.6,1.4,1.4l-0.1,0.1c0.5-0.5,0.6-0.6,1-1.1c-0.3-0.2-0.6-0.4-0.9-0.6
				C31.8,0.6,31.5,0.5,31.3,0.5z M31.1,0.3H31c-1.1,0.2-2.2,0.7-3,1.5c0.3,0.1,0.8,0.1,1.3,0C30,1.6,30.2,1.4,30.6,1
				C30.8,0.9,31,0.6,31.1,0.3z M31.8,0.3h-0.2c0.2,0.1,0.5,0.2,0.8,0.4C32.7,0.8,33,1,33.3,1.3c0.2-0.3,0.3-0.5,0.3-0.6
				C33.1,0.4,32.5,0.3,31.8,0.3z"/>
		</g>
	</g>
</g>
</svg>
