<svg xmlns="http://www.w3.org/2000/svg" width="24" height="24" viewBox="0 0 21.41 24"><defs><style>.cls-1{fill:#851c35;}.cls-2{fill:#999;}</style></defs><g id="圖層_2" data-name="圖層 2"><g id="圖層_1-2" data-name="圖層 1"><path class="cls-1" d="M20.35,2.84h-4a.83.83,0,0,1,.2.53v.92a.87.87,0,0,1-.88.87h-10a.88.88,0,0,1-.88-.87V3.37A.88.88,0,0,1,5,2.84H1.06A1.06,1.06,0,0,0,0,3.89V23A1.06,1.06,0,0,0,1.06,24H20.35A1.06,1.06,0,0,0,21.41,23V3.89A1.06,1.06,0,0,0,20.35,2.84ZM18.22,20.89h-15V18h15Zm0-5.45h-15V12.55h15Zm0-5.45h-15V7.1h15Z"/><path class="cls-2" d="M13.86,0H7.55a1,1,0,0,0-1,1V2.88a1,1,0,0,0,1,1h6.31a1,1,0,0,0,1-1V1A1,1,0,0,0,13.86,0ZM13,1.91H8.36V1.23H13Z"/></g></g></svg>