<svg xmlns="http://www.w3.org/2000/svg" width="24" height="24" viewBox="0 0 24 24"><defs><style>.cls-1{fill:#999;}.cls-2{fill:#fff;}</style></defs><g id="喇뒨쏛_2" data-name="喇뒨쏛 2"><g id="喇뒨쏛_1-2" data-name="喇뒨쏛 1"><circle class="cls-1" cx="10" cy="10" r="10"/><circle class="cls-2" cx="10" cy="10" r="8"/><path class="cls-1" d="M10.89,9.1c-1.78-.59-2.64-1-2.64-1.9s1.11-1.39,1.81-1.39A1.93,1.93,0,0,1,12,7.15l1.58-.67a3.43,3.43,0,0,0-2.66-2.23V3H9.13V4.26a3.08,3.08,0,0,0-2.62,3c0,2.27,2.25,2.91,3.35,3.31,1.58.56,2.28,1.07,2.28,2,0,1.13-1.05,1.61-2,1.61a2.64,2.64,0,0,1-2.4-2.09l-1.66.67a4,4,0,0,0,3,3V17h1.75V15.76a3.32,3.32,0,0,0,3-3.22C13.9,11.15,13.29,9.93,10.89,9.1Z"/></g></g></svg>
