<svg width="16" height="16" viewBox="0 0 16 16" fill="none" xmlns="http://www.w3.org/2000/svg">
<path d="M8.00065 12.6673C10.578 12.6673 12.6673 10.578 12.6673 8.00065C12.6673 5.42332 10.578 3.33398 8.00065 3.33398C5.42332 3.33398 3.33398 5.42332 3.33398 8.00065C3.33398 10.578 5.42332 12.6673 8.00065 12.6673Z" fill="#9E9E9E"/>
<path d="M7.99935 15.306C7.63268 15.306 7.33268 15.0327 7.33268 14.666V14.6127C7.33268 14.246 7.63268 13.946 7.99935 13.946C8.36602 13.946 8.66602 14.246 8.66602 14.6127C8.66602 14.9793 8.36602 15.306 7.99935 15.306ZM12.7593 13.426C12.586 13.426 12.4193 13.3593 12.286 13.2327L12.1993 13.146C11.9393 12.886 11.9393 12.466 12.1993 12.206C12.4593 11.946 12.8793 11.946 13.1393 12.206L13.226 12.2927C13.486 12.5527 13.486 12.9727 13.226 13.2327C13.0993 13.3593 12.9327 13.426 12.7593 13.426ZM3.23935 13.426C3.06602 13.426 2.89935 13.3593 2.76602 13.2327C2.50602 12.9727 2.50602 12.5527 2.76602 12.2927L2.85268 12.206C3.11268 11.946 3.53268 11.946 3.79268 12.206C4.05268 12.466 4.05268 12.886 3.79268 13.146L3.70602 13.2327C3.57935 13.3593 3.40602 13.426 3.23935 13.426ZM14.666 8.66602H14.6127C14.246 8.66602 13.946 8.36602 13.946 7.99935C13.946 7.63268 14.246 7.33268 14.6127 7.33268C14.9793 7.33268 15.306 7.63268 15.306 7.99935C15.306 8.36602 15.0327 8.66602 14.666 8.66602ZM1.38602 8.66602H1.33268C0.966016 8.66602 0.666016 8.36602 0.666016 7.99935C0.666016 7.63268 0.966016 7.33268 1.33268 7.33268C1.69935 7.33268 2.02602 7.63268 2.02602 7.99935C2.02602 8.36602 1.75268 8.66602 1.38602 8.66602ZM12.6727 3.99268C12.4993 3.99268 12.3327 3.92602 12.1993 3.79935C11.9393 3.53935 11.9393 3.11935 12.1993 2.85935L12.286 2.77268C12.546 2.51268 12.966 2.51268 13.226 2.77268C13.486 3.03268 13.486 3.45268 13.226 3.71268L13.1393 3.79935C13.0127 3.92602 12.846 3.99268 12.6727 3.99268ZM3.32602 3.99268C3.15268 3.99268 2.98602 3.92602 2.85268 3.79935L2.76602 3.70602C2.50602 3.44602 2.50602 3.02602 2.76602 2.76602C3.02602 2.50602 3.44602 2.50602 3.70602 2.76602L3.79268 2.85268C4.05268 3.11268 4.05268 3.53268 3.79268 3.79268C3.66602 3.92602 3.49268 3.99268 3.32602 3.99268ZM7.99935 2.02602C7.63268 2.02602 7.33268 1.75268 7.33268 1.38602V1.33268C7.33268 0.966016 7.63268 0.666016 7.99935 0.666016C8.36602 0.666016 8.66602 0.966016 8.66602 1.33268C8.66602 1.69935 8.36602 2.02602 7.99935 2.02602Z" fill="#9E9E9E"/>
</svg>
