<svg width="15" height="15" viewBox="0 0 15 15" fill="none" xmlns="http://www.w3.org/2000/svg">
<path d="M7.5 15C5.41667 15 3.64583 14.2708 2.1875 12.8125C0.729167 11.3542 0 9.58333 0 7.5C0 5.41667 0.729167 3.64583 2.1875 2.1875C3.64583 0.729167 5.41667 0 7.5 0C7.69444 0 7.88542 0.00694444 8.07292 0.0208333C8.26042 0.0347222 8.44444 0.0555556 8.625 0.0833333C8.05556 0.486111 7.60069 1.01042 7.26042 1.65625C6.92014 2.30208 6.75 3 6.75 3.75C6.75 5 7.1875 6.0625 8.0625 6.9375C8.9375 7.8125 10 8.25 11.25 8.25C12.0139 8.25 12.7153 8.07986 13.3542 7.73958C13.9931 7.39931 14.5139 6.94444 14.9167 6.375C14.9444 6.55556 14.9653 6.73958 14.9792 6.92708C14.9931 7.11458 15 7.30556 15 7.5C15 9.58333 14.2708 11.3542 12.8125 12.8125C11.3542 14.2708 9.58333 15 7.5 15ZM7.5 13.3333C8.72222 13.3333 9.81944 12.9965 10.7917 12.3229C11.7639 11.6493 12.4722 10.7708 12.9167 9.6875C12.6389 9.75694 12.3611 9.8125 12.0833 9.85417C11.8056 9.89583 11.5278 9.91667 11.25 9.91667C9.54167 9.91667 8.08681 9.31597 6.88542 8.11458C5.68403 6.91319 5.08333 5.45833 5.08333 3.75C5.08333 3.47222 5.10417 3.19444 5.14583 2.91667C5.1875 2.63889 5.24306 2.36111 5.3125 2.08333C4.22917 2.52778 3.35069 3.23611 2.67708 4.20833C2.00347 5.18056 1.66667 6.27778 1.66667 7.5C1.66667 9.11111 2.23611 10.4861 3.375 11.625C4.51389 12.7639 5.88889 13.3333 7.5 13.3333Z" fill="#F5C451"/>
</svg>
