<svg width="20" height="20" viewBox="0 0 20 20" fill="none" xmlns="http://www.w3.org/2000/svg">
<g clip-path="url(#clip0_2258_2460)">
<path d="M18.3327 9.99935C18.3327 14.6017 14.6017 18.3327 9.99935 18.3327M18.3327 9.99935C18.3327 5.39698 14.6017 1.66602 9.99935 1.66602M18.3327 9.99935H1.66602M9.99935 18.3327C5.39698 18.3327 1.66602 14.6017 1.66602 9.99935M9.99935 18.3327C12.0837 16.0507 13.2683 13.0893 13.3327 9.99935C13.2683 6.90938 12.0837 3.94798 9.99935 1.66602M9.99935 18.3327C7.91495 16.0507 6.73039 13.0893 6.66602 9.99935C6.73039 6.90938 7.91495 3.94798 9.99935 1.66602M1.66602 9.99935C1.66602 5.39698 5.39698 1.66602 9.99935 1.66602" stroke="#9E9E9E" stroke-width="1.6" stroke-linecap="round" stroke-linejoin="round"/>
</g>
<defs>
<clipPath id="clip0_2258_2460">
<rect width="20" height="20" fill="white"/>
</clipPath>
</defs>
</svg>
